<?xml version="1.0" encoding="UTF-8" standalone="no"?>
<!DOCTYPE svg PUBLIC "-//W3C//DTD SVG 1.1//EN"
 "http://www.w3.org/Graphics/SVG/1.1/DTD/svg11.dtd">
<!-- Generated by graphviz version 2.38.0 (20140413.2041)
 -->
<!-- Title: G Pages: 1 -->
<svg width="1403pt" height="2392pt"
 viewBox="0.00 0.00 1403.40 2391.51" xmlns="http://www.w3.org/2000/svg" xmlns:xlink="http://www.w3.org/1999/xlink">
<g id="graph0" class="graph" transform="scale(1 1) rotate(0) translate(4 2387.51)">
<title>G</title>
<polygon fill="white" stroke="none" points="-4,4 -4,-2387.51 1399.4,-2387.51 1399.4,4 -4,4"/>
<g id="clust1" class="cluster"><title>cluster_Global</title>
<path fill="none" stroke="gray" d="M698.386,-107.509C698.386,-107.509 1375.4,-107.509 1375.4,-107.509 1381.4,-107.509 1387.4,-113.509 1387.4,-119.509 1387.4,-119.509 1387.4,-2363.51 1387.4,-2363.51 1387.4,-2369.51 1381.4,-2375.51 1375.4,-2375.51 1375.4,-2375.51 698.386,-2375.51 698.386,-2375.51 692.386,-2375.51 686.386,-2369.51 686.386,-2363.51 686.386,-2363.51 686.386,-119.509 686.386,-119.509 686.386,-113.509 692.386,-107.509 698.386,-107.509"/>
<text text-anchor="middle" x="1036.9" y="-2362.71" font-family="Times New Roman,serif" font-size="11.00" fill="gray">Global</text>
</g>
<g id="clust2" class="cluster"><title>cluster_\Slothsoft</title>
<path fill="none" stroke="gray" d="M706.386,-115.509C706.386,-115.509 1367.4,-115.509 1367.4,-115.509 1373.4,-115.509 1379.4,-121.509 1379.4,-127.509 1379.4,-127.509 1379.4,-2335.51 1379.4,-2335.51 1379.4,-2341.51 1373.4,-2347.51 1367.4,-2347.51 1367.4,-2347.51 706.386,-2347.51 706.386,-2347.51 700.386,-2347.51 694.386,-2341.51 694.386,-2335.51 694.386,-2335.51 694.386,-127.509 694.386,-127.509 694.386,-121.509 700.386,-115.509 706.386,-115.509"/>
<text text-anchor="middle" x="1036.9" y="-2334.71" font-family="Times New Roman,serif" font-size="11.00" fill="gray">Slothsoft</text>
</g>
<g id="clust3" class="cluster"><title>cluster_\Slothsoft\MTG</title>
<path fill="none" stroke="gray" d="M714.386,-123.509C714.386,-123.509 1359.4,-123.509 1359.4,-123.509 1365.4,-123.509 1371.4,-129.509 1371.4,-135.509 1371.4,-135.509 1371.4,-2307.51 1371.4,-2307.51 1371.4,-2313.51 1365.4,-2319.51 1359.4,-2319.51 1359.4,-2319.51 714.386,-2319.51 714.386,-2319.51 708.386,-2319.51 702.386,-2313.51 702.386,-2307.51 702.386,-2307.51 702.386,-135.509 702.386,-135.509 702.386,-129.509 708.386,-123.509 714.386,-123.509"/>
<text text-anchor="middle" x="1036.9" y="-2306.71" font-family="Times New Roman,serif" font-size="11.00" fill="gray">MTG</text>
</g>
<g id="clust4" class="cluster"><title>cluster_\Slothsoft\MTG\Assets</title>
<path fill="none" stroke="gray" d="M1233.9,-393.509C1233.9,-393.509 1329.9,-393.509 1329.9,-393.509 1335.9,-393.509 1341.9,-399.509 1341.9,-405.509 1341.9,-405.509 1341.9,-507.509 1341.9,-507.509 1341.9,-513.509 1335.9,-519.509 1329.9,-519.509 1329.9,-519.509 1233.9,-519.509 1233.9,-519.509 1227.9,-519.509 1221.9,-513.509 1221.9,-507.509 1221.9,-507.509 1221.9,-405.509 1221.9,-405.509 1221.9,-399.509 1227.9,-393.509 1233.9,-393.509"/>
<text text-anchor="middle" x="1281.9" y="-506.709" font-family="Times New Roman,serif" font-size="11.00" fill="gray">Assets</text>
</g>
<g id="clust5" class="cluster"><title>cluster_\Slothsoft\MTG\Oracle</title>
<path fill="none" stroke="gray" d="M722.386,-527.509C722.386,-527.509 1351.4,-527.509 1351.4,-527.509 1357.4,-527.509 1363.4,-533.509 1363.4,-539.509 1363.4,-539.509 1363.4,-1425.51 1363.4,-1425.51 1363.4,-1431.51 1357.4,-1437.51 1351.4,-1437.51 1351.4,-1437.51 722.386,-1437.51 722.386,-1437.51 716.386,-1437.51 710.386,-1431.51 710.386,-1425.51 710.386,-1425.51 710.386,-539.509 710.386,-539.509 710.386,-533.509 716.386,-527.509 722.386,-527.509"/>
<text text-anchor="middle" x="1036.9" y="-1424.71" font-family="Times New Roman,serif" font-size="11.00" fill="gray">Oracle</text>
</g>
<g id="clust6" class="cluster"><title>cluster_\Slothsoft\MTG\Oracle\Work</title>
<path fill="none" stroke="gray" d="M730.386,-635.509C730.386,-635.509 1343.4,-635.509 1343.4,-635.509 1349.4,-635.509 1355.4,-641.509 1355.4,-647.509 1355.4,-647.509 1355.4,-1397.51 1355.4,-1397.51 1355.4,-1403.51 1349.4,-1409.51 1343.4,-1409.51 1343.4,-1409.51 730.386,-1409.51 730.386,-1409.51 724.386,-1409.51 718.386,-1403.51 718.386,-1397.51 718.386,-1397.51 718.386,-647.509 718.386,-647.509 718.386,-641.509 724.386,-635.509 730.386,-635.509"/>
<text text-anchor="middle" x="1036.9" y="-1396.71" font-family="Times New Roman,serif" font-size="11.00" fill="gray">Work</text>
</g>
<!-- \\Slothsoft\\MTG\\Assets\\OracleBuilder -->
<g id="node1" class="node"><title>\\Slothsoft\\MTG\\Assets\\OracleBuilder</title>
<polygon fill="none" stroke="black" points="1333.9,-491.509 1229.9,-491.509 1229.9,-455.509 1333.9,-455.509 1333.9,-491.509"/>
<text text-anchor="middle" x="1281.9" y="-470.709" font-family="Courier,monospace" font-size="11.00">OracleBuilder</text>
</g>
<!-- \\Slothsoft\\Farah\\Module\\Asset\\ExecutableBuilderStrategy\\ExecutableBuilderStrategyInterface -->
<g id="node43" class="node"><title>\\Slothsoft\\Farah\\Module\\Asset\\ExecutableBuilderStrategy\\ExecutableBuilderStrategyInterface</title>
<ellipse fill="none" stroke="black" cx="795.386" cy="-27.5086" rx="349.038" ry="18"/>
<text text-anchor="middle" x="795.386" y="-23.8086" font-family="Times New Roman,serif" font-size="14.00" fill="gray">\Slothsoft\Farah\Module\Asset\ExecutableBuilderStrategy\ExecutableBuilderStrategyInterface</text>
</g>
<!-- \\Slothsoft\\MTG\\Assets\\OracleBuilder&#45;&gt;\\Slothsoft\\Farah\\Module\\Asset\\ExecutableBuilderStrategy\\ExecutableBuilderStrategyInterface -->
<g id="edge6" class="edge"><title>\\Slothsoft\\MTG\\Assets\\OracleBuilder&#45;&gt;\\Slothsoft\\Farah\\Module\\Asset\\ExecutableBuilderStrategy\\ExecutableBuilderStrategyInterface</title>
<path fill="none" stroke="black" stroke-dasharray="1,5" d="M1229.6,-457.988C1224.61,-454.832 1220.06,-451.047 1216.4,-446.509 1105.3,-308.55 1276.01,-173.069 1144.4,-54.5086 1073.41,9.44516 957.853,4.86248 879.554,-8.0931"/>
<polygon fill="none" stroke="black" points="878.495,-4.72459 869.24,-9.88332 879.692,-11.6215 878.495,-4.72459"/>
</g>
<!-- \\Slothsoft\\MTG\\Assets\\WorkBuilder -->
<g id="node2" class="node"><title>\\Slothsoft\\MTG\\Assets\\WorkBuilder</title>
<polygon fill="none" stroke="black" points="1327.4,-437.509 1236.4,-437.509 1236.4,-401.509 1327.4,-401.509 1327.4,-437.509"/>
<text text-anchor="middle" x="1281.9" y="-416.709" font-family="Courier,monospace" font-size="11.00">WorkBuilder</text>
</g>
<!-- \\Slothsoft\\MTG\\Assets\\WorkBuilder&#45;&gt;\\Slothsoft\\Farah\\Module\\Asset\\ExecutableBuilderStrategy\\ExecutableBuilderStrategyInterface -->
<g id="edge7" class="edge"><title>\\Slothsoft\\MTG\\Assets\\WorkBuilder&#45;&gt;\\Slothsoft\\Farah\\Module\\Asset\\ExecutableBuilderStrategy\\ExecutableBuilderStrategyInterface</title>
<path fill="none" stroke="black" stroke-dasharray="1,5" d="M1236.27,-411.088C1228.79,-407.909 1221.74,-403.533 1216.4,-397.509 1113.17,-280.865 1261.44,-157.296 1144.4,-54.5086 1073.16,8.06507 958.985,4.23229 880.982,-8.20543"/>
<polygon fill="none" stroke="black" points="879.986,-4.82347 870.701,-9.92752 881.142,-11.7273 879.986,-4.82347"/>
</g>
<!-- \\Slothsoft\\MTG\\Oracle\\Work\\AbstractOracleWork -->
<g id="node3" class="node"><title>\\Slothsoft\\MTG\\Oracle\\Work\\AbstractOracleWork</title>
<polygon fill="none" stroke="black" points="864.386,-1057.51 726.386,-1057.51 726.386,-1021.51 864.386,-1021.51 864.386,-1057.51"/>
<text text-anchor="start" x="761.386" y="-1042.71" font-family="Courier,monospace" font-size="11.00">«abstract»</text>
<text text-anchor="start" x="734.386" y="-1030.71" font-family="Courier,monospace" font-size="11.00">AbstractOracleWork</text>
</g>
<!-- \\Slothsoft\\Farah\\PThreads\\AbstractWorkThread -->
<g id="node44" class="node"><title>\\Slothsoft\\Farah\\PThreads\\AbstractWorkThread</title>
<ellipse fill="none" stroke="black" cx="187.183" cy="-1039.51" rx="187.367" ry="18"/>
<text text-anchor="middle" x="187.183" y="-1035.81" font-family="Times New Roman,serif" font-size="14.00" fill="gray">\Slothsoft\Farah\PThreads\AbstractWorkThread</text>
</g>
<!-- \\Slothsoft\\MTG\\Oracle\\Work\\AbstractOracleWork&#45;&gt;\\Slothsoft\\Farah\\PThreads\\AbstractWorkThread -->
<g id="edge8" class="edge"><title>\\Slothsoft\\MTG\\Oracle\\Work\\AbstractOracleWork&#45;&gt;\\Slothsoft\\Farah\\PThreads\\AbstractWorkThread</title>
<path fill="none" stroke="black" d="M726.318,-1039.51C644.12,-1039.51 502.271,-1039.51 384.84,-1039.51"/>
<polygon fill="none" stroke="black" points="384.636,-1036.01 374.636,-1039.51 384.636,-1043.01 384.636,-1036.01"/>
</g>
<!-- \\Slothsoft\\MTG\\Oracle\\Work\\End -->
<g id="node4" class="node"><title>\\Slothsoft\\MTG\\Oracle\\Work\\End</title>
<polygon fill="none" stroke="black" points="1308.9,-1273.51 1254.9,-1273.51 1254.9,-1237.51 1308.9,-1237.51 1308.9,-1273.51"/>
<text text-anchor="middle" x="1281.9" y="-1252.71" font-family="Courier,monospace" font-size="11.00">End</text>
</g>
<!-- \\Slothsoft\\MTG\\Oracle\\Work\\End&#45;&gt;\\Slothsoft\\MTG\\Oracle\\Work\\AbstractOracleWork -->
<g id="edge9" class="edge"><title>\\Slothsoft\\MTG\\Oracle\\Work\\End&#45;&gt;\\Slothsoft\\MTG\\Oracle\\Work\\AbstractOracleWork</title>
<path fill="none" stroke="black" d="M1254.72,-1249.52C1241.83,-1245.44 1226.85,-1238.84 1216.4,-1228.51 1158.95,-1171.66 1210.49,-1108.04 1144.4,-1061.51 1065.76,-1006.14 950.7,-1011.02 874.707,-1022.69"/>
<polygon fill="none" stroke="black" points="874.031,-1019.26 864.714,-1024.3 875.143,-1026.17 874.031,-1019.26"/>
</g>
<!-- \\Slothsoft\\MTG\\Oracle\\Work\\FetchCustom -->
<g id="node5" class="node"><title>\\Slothsoft\\MTG\\Oracle\\Work\\FetchCustom</title>
<polygon fill="none" stroke="black" points="1327.4,-1219.51 1236.4,-1219.51 1236.4,-1183.51 1327.4,-1183.51 1327.4,-1219.51"/>
<text text-anchor="middle" x="1281.9" y="-1198.71" font-family="Courier,monospace" font-size="11.00">FetchCustom</text>
</g>
<!-- \\Slothsoft\\MTG\\Oracle\\Work\\FetchCustom&#45;&gt;\\Slothsoft\\MTG\\Oracle\\Work\\AbstractOracleWork -->
<g id="edge10" class="edge"><title>\\Slothsoft\\MTG\\Oracle\\Work\\FetchCustom&#45;&gt;\\Slothsoft\\MTG\\Oracle\\Work\\AbstractOracleWork</title>
<path fill="none" stroke="black" d="M1236.18,-1187.01C1229.13,-1183.57 1222.25,-1179.44 1216.4,-1174.51 1170.86,-1136.15 1195.69,-1091.78 1144.4,-1061.51 1062.25,-1013.01 949.363,-1015.88 874.712,-1025.26"/>
<polygon fill="none" stroke="black" points="873.893,-1021.84 864.439,-1026.62 874.813,-1028.78 873.893,-1021.84"/>
</g>
<!-- \\Slothsoft\\MTG\\Oracle\\Work\\FetchGatherer -->
<g id="node6" class="node"><title>\\Slothsoft\\MTG\\Oracle\\Work\\FetchGatherer</title>
<polygon fill="none" stroke="black" points="1333.9,-1165.51 1229.9,-1165.51 1229.9,-1129.51 1333.9,-1129.51 1333.9,-1165.51"/>
<text text-anchor="middle" x="1281.9" y="-1144.71" font-family="Courier,monospace" font-size="11.00">FetchGatherer</text>
</g>
<!-- \\Slothsoft\\MTG\\Oracle\\Work\\FetchGatherer&#45;&gt;\\Slothsoft\\MTG\\Oracle\\Work\\AbstractOracleWork -->
<g id="edge11" class="edge"><title>\\Slothsoft\\MTG\\Oracle\\Work\\FetchGatherer&#45;&gt;\\Slothsoft\\MTG\\Oracle\\Work\\AbstractOracleWork</title>
<path fill="none" stroke="black" d="M1233.27,-1129.43C1227.46,-1126.69 1221.71,-1123.7 1216.4,-1120.51 1180.95,-1099.19 1182.9,-1076.65 1144.4,-1061.51 1056.7,-1027 946.965,-1026.33 874.428,-1031.1"/>
<polygon fill="none" stroke="black" points="874.174,-1027.61 864.445,-1031.81 874.668,-1034.59 874.174,-1027.61"/>
</g>
<!-- \\Slothsoft\\MTG\\Oracle\\Work\\FetchImages -->
<g id="node7" class="node"><title>\\Slothsoft\\MTG\\Oracle\\Work\\FetchImages</title>
<polygon fill="none" stroke="black" points="1327.4,-1111.51 1236.4,-1111.51 1236.4,-1075.51 1327.4,-1075.51 1327.4,-1111.51"/>
<text text-anchor="middle" x="1281.9" y="-1090.71" font-family="Courier,monospace" font-size="11.00">FetchImages</text>
</g>
<!-- \\Slothsoft\\MTG\\Oracle\\Work\\FetchImages&#45;&gt;\\Slothsoft\\MTG\\Oracle\\Work\\AbstractOracleWork -->
<g id="edge12" class="edge"><title>\\Slothsoft\\MTG\\Oracle\\Work\\FetchImages&#45;&gt;\\Slothsoft\\MTG\\Oracle\\Work\\AbstractOracleWork</title>
<path fill="none" stroke="black" d="M1236.39,-1081.08C1209.88,-1074.19 1175.47,-1066.1 1144.4,-1061.51 1052.36,-1047.91 945.398,-1042.71 874.606,-1040.72"/>
<polygon fill="none" stroke="black" points="874.519,-1037.22 864.43,-1040.45 874.334,-1044.22 874.519,-1037.22"/>
</g>
<!-- \\Slothsoft\\MTG\\Oracle\\Work\\FetchPrices -->
<g id="node8" class="node"><title>\\Slothsoft\\MTG\\Oracle\\Work\\FetchPrices</title>
<polygon fill="none" stroke="black" points="1327.4,-1057.51 1236.4,-1057.51 1236.4,-1021.51 1327.4,-1021.51 1327.4,-1057.51"/>
<text text-anchor="middle" x="1281.9" y="-1036.71" font-family="Courier,monospace" font-size="11.00">FetchPrices</text>
</g>
<!-- \\Slothsoft\\MTG\\Oracle\\Work\\FetchPrices&#45;&gt;\\Slothsoft\\MTG\\Oracle\\Work\\AbstractOracleWork -->
<g id="edge13" class="edge"><title>\\Slothsoft\\MTG\\Oracle\\Work\\FetchPrices&#45;&gt;\\Slothsoft\\MTG\\Oracle\\Work\\AbstractOracleWork</title>
<path fill="none" stroke="black" d="M1236.19,-1039.51C1153.86,-1039.51 977.347,-1039.51 874.73,-1039.51"/>
<polygon fill="none" stroke="black" points="874.426,-1036.01 864.426,-1039.51 874.426,-1043.01 874.426,-1036.01"/>
</g>
<!-- \\Slothsoft\\MTG\\Oracle\\Work\\FetchXml -->
<g id="node9" class="node"><title>\\Slothsoft\\MTG\\Oracle\\Work\\FetchXml</title>
<polygon fill="none" stroke="black" points="1317.4,-1003.51 1246.4,-1003.51 1246.4,-967.509 1317.4,-967.509 1317.4,-1003.51"/>
<text text-anchor="middle" x="1281.9" y="-982.709" font-family="Courier,monospace" font-size="11.00">FetchXml</text>
</g>
<!-- \\Slothsoft\\MTG\\Oracle\\Work\\FetchXml&#45;&gt;\\Slothsoft\\MTG\\Oracle\\Work\\AbstractOracleWork -->
<g id="edge14" class="edge"><title>\\Slothsoft\\MTG\\Oracle\\Work\\FetchXml&#45;&gt;\\Slothsoft\\MTG\\Oracle\\Work\\AbstractOracleWork</title>
<path fill="none" stroke="black" d="M1246.06,-989.392C1168.81,-998.002 981.572,-1018.87 874.656,-1030.79"/>
<polygon fill="none" stroke="black" points="874.117,-1027.32 864.566,-1031.91 874.892,-1034.28 874.117,-1027.32"/>
</g>
<!-- \\Slothsoft\\MTG\\Oracle\\Work\\OracleWorkManager -->
<g id="node10" class="node"><title>\\Slothsoft\\MTG\\Oracle\\Work\\OracleWorkManager</title>
<polygon fill="none" stroke="black" points="1347.4,-679.509 1216.4,-679.509 1216.4,-643.509 1347.4,-643.509 1347.4,-679.509"/>
<text text-anchor="middle" x="1281.9" y="-658.709" font-family="Courier,monospace" font-size="11.00">OracleWorkManager</text>
</g>
<!-- \\Slothsoft\\Farah\\PThreads\\WorkManager -->
<g id="node45" class="node"><title>\\Slothsoft\\Farah\\PThreads\\WorkManager</title>
<ellipse fill="none" stroke="black" cx="795.386" cy="-81.5086" rx="161.372" ry="18"/>
<text text-anchor="middle" x="795.386" y="-77.8086" font-family="Times New Roman,serif" font-size="14.00" fill="gray">\Slothsoft\Farah\PThreads\WorkManager</text>
</g>
<!-- \\Slothsoft\\MTG\\Oracle\\Work\\OracleWorkManager&#45;&gt;\\Slothsoft\\Farah\\PThreads\\WorkManager -->
<g id="edge15" class="edge"><title>\\Slothsoft\\MTG\\Oracle\\Work\\OracleWorkManager&#45;&gt;\\Slothsoft\\Farah\\PThreads\\WorkManager</title>
<path fill="none" stroke="black" d="M1222.41,-643.431C1220.33,-642.203 1218.32,-640.897 1216.4,-639.509 1005.85,-486.912 853.303,-198.381 809.342,-108.763"/>
<polygon fill="none" stroke="black" points="812.379,-107.004 804.859,-99.5405 806.083,-110.064 812.379,-107.004"/>
</g>
<!-- \\Slothsoft\\MTG\\Oracle\\Work\\PrepareCustom -->
<g id="node11" class="node"><title>\\Slothsoft\\MTG\\Oracle\\Work\\PrepareCustom</title>
<polygon fill="none" stroke="black" points="1333.9,-949.509 1229.9,-949.509 1229.9,-913.509 1333.9,-913.509 1333.9,-949.509"/>
<text text-anchor="middle" x="1281.9" y="-928.709" font-family="Courier,monospace" font-size="11.00">PrepareCustom</text>
</g>
<!-- \\Slothsoft\\MTG\\Oracle\\Work\\PrepareCustom&#45;&gt;\\Slothsoft\\MTG\\Oracle\\Work\\AbstractOracleWork -->
<g id="edge16" class="edge"><title>\\Slothsoft\\MTG\\Oracle\\Work\\PrepareCustom&#45;&gt;\\Slothsoft\\MTG\\Oracle\\Work\\AbstractOracleWork</title>
<path fill="none" stroke="black" d="M1229.51,-942.964C1144.63,-961.885 974.605,-999.783 874.689,-1022.05"/>
<polygon fill="none" stroke="black" points="873.648,-1018.7 864.649,-1024.29 875.171,-1025.53 873.648,-1018.7"/>
</g>
<!-- \\Slothsoft\\MTG\\Oracle\\Work\\PrepareGatherer -->
<g id="node12" class="node"><title>\\Slothsoft\\MTG\\Oracle\\Work\\PrepareGatherer</title>
<polygon fill="none" stroke="black" points="1340.9,-895.509 1222.9,-895.509 1222.9,-859.509 1340.9,-859.509 1340.9,-895.509"/>
<text text-anchor="middle" x="1281.9" y="-874.709" font-family="Courier,monospace" font-size="11.00">PrepareGatherer</text>
</g>
<!-- \\Slothsoft\\MTG\\Oracle\\Work\\PrepareGatherer&#45;&gt;\\Slothsoft\\MTG\\Oracle\\Work\\AbstractOracleWork -->
<g id="edge17" class="edge"><title>\\Slothsoft\\MTG\\Oracle\\Work\\PrepareGatherer&#45;&gt;\\Slothsoft\\MTG\\Oracle\\Work\\AbstractOracleWork</title>
<path fill="none" stroke="black" d="M1226.73,-895.621C1136.61,-925.754 956.303,-986.04 860.176,-1018.18"/>
<polygon fill="none" stroke="black" points="858.952,-1014.9 850.577,-1021.39 861.171,-1021.54 858.952,-1014.9"/>
</g>
<!-- \\Slothsoft\\MTG\\Oracle\\Work\\PrepareImages -->
<g id="node13" class="node"><title>\\Slothsoft\\MTG\\Oracle\\Work\\PrepareImages</title>
<polygon fill="none" stroke="black" points="1333.9,-841.509 1229.9,-841.509 1229.9,-805.509 1333.9,-805.509 1333.9,-841.509"/>
<text text-anchor="middle" x="1281.9" y="-820.709" font-family="Courier,monospace" font-size="11.00">PrepareImages</text>
</g>
<!-- \\Slothsoft\\MTG\\Oracle\\Work\\PrepareImages&#45;&gt;\\Slothsoft\\MTG\\Oracle\\Work\\AbstractOracleWork -->
<g id="edge18" class="edge"><title>\\Slothsoft\\MTG\\Oracle\\Work\\PrepareImages&#45;&gt;\\Slothsoft\\MTG\\Oracle\\Work\\AbstractOracleWork</title>
<path fill="none" stroke="black" d="M1237.12,-841.653C1230.18,-844.583 1223.09,-847.608 1216.4,-850.509 1081.08,-909.267 922.65,-981.5 844.708,-1017.26"/>
<polygon fill="none" stroke="black" points="843.237,-1014.09 835.609,-1021.44 846.157,-1020.45 843.237,-1014.09"/>
</g>
<!-- \\Slothsoft\\MTG\\Oracle\\Work\\PreparePrices -->
<g id="node14" class="node"><title>\\Slothsoft\\MTG\\Oracle\\Work\\PreparePrices</title>
<polygon fill="none" stroke="black" points="1333.9,-787.509 1229.9,-787.509 1229.9,-751.509 1333.9,-751.509 1333.9,-787.509"/>
<text text-anchor="middle" x="1281.9" y="-766.709" font-family="Courier,monospace" font-size="11.00">PreparePrices</text>
</g>
<!-- \\Slothsoft\\MTG\\Oracle\\Work\\PreparePrices&#45;&gt;\\Slothsoft\\MTG\\Oracle\\Work\\AbstractOracleWork -->
<g id="edge19" class="edge"><title>\\Slothsoft\\MTG\\Oracle\\Work\\PreparePrices&#45;&gt;\\Slothsoft\\MTG\\Oracle\\Work\\AbstractOracleWork</title>
<path fill="none" stroke="black" d="M1235.81,-787.515C1229.24,-790.39 1222.6,-793.434 1216.4,-796.509 1070.57,-868.847 905.584,-970.432 833.45,-1015.9"/>
<polygon fill="none" stroke="black" points="831.298,-1013.11 824.713,-1021.41 835.036,-1019.03 831.298,-1013.11"/>
</g>
<!-- \\Slothsoft\\MTG\\Oracle\\Work\\PrepareXml -->
<g id="node15" class="node"><title>\\Slothsoft\\MTG\\Oracle\\Work\\PrepareXml</title>
<polygon fill="none" stroke="black" points="1323.9,-733.509 1239.9,-733.509 1239.9,-697.509 1323.9,-697.509 1323.9,-733.509"/>
<text text-anchor="middle" x="1281.9" y="-712.709" font-family="Courier,monospace" font-size="11.00">PrepareXml</text>
</g>
<!-- \\Slothsoft\\MTG\\Oracle\\Work\\PrepareXml&#45;&gt;\\Slothsoft\\MTG\\Oracle\\Work\\AbstractOracleWork -->
<g id="edge20" class="edge"><title>\\Slothsoft\\MTG\\Oracle\\Work\\PrepareXml&#45;&gt;\\Slothsoft\\MTG\\Oracle\\Work\\AbstractOracleWork</title>
<path fill="none" stroke="black" d="M1239.66,-731.183C1231.79,-734.616 1223.73,-738.449 1216.4,-742.509 1060.96,-828.638 893.394,-960.317 826.472,-1014.69"/>
<polygon fill="none" stroke="black" points="823.985,-1012.21 818.446,-1021.24 828.408,-1017.63 823.985,-1012.21"/>
</g>
<!-- \\Slothsoft\\MTG\\Oracle\\Work\\Start -->
<g id="node16" class="node"><title>\\Slothsoft\\MTG\\Oracle\\Work\\Start</title>
<polygon fill="none" stroke="black" points="1308.9,-1381.51 1254.9,-1381.51 1254.9,-1345.51 1308.9,-1345.51 1308.9,-1381.51"/>
<text text-anchor="middle" x="1281.9" y="-1360.71" font-family="Courier,monospace" font-size="11.00">Start</text>
</g>
<!-- \\Slothsoft\\MTG\\Oracle\\Work\\Start&#45;&gt;\\Slothsoft\\MTG\\Oracle\\Work\\AbstractOracleWork -->
<g id="edge21" class="edge"><title>\\Slothsoft\\MTG\\Oracle\\Work\\Start&#45;&gt;\\Slothsoft\\MTG\\Oracle\\Work\\AbstractOracleWork</title>
<path fill="none" stroke="black" d="M1254.69,-1358.35C1241.47,-1354.45 1226.2,-1347.78 1216.4,-1336.51 1133.55,-1241.13 1241.93,-1141.83 1144.4,-1061.51 1069.6,-999.906 952.287,-1006.74 874.864,-1020.51"/>
<polygon fill="none" stroke="black" points="873.877,-1017.13 864.685,-1022.4 875.156,-1024.01 873.877,-1017.13"/>
</g>
<!-- \\Slothsoft\\MTG\\Oracle\\Work\\UpdateIdTable -->
<g id="node17" class="node"><title>\\Slothsoft\\MTG\\Oracle\\Work\\UpdateIdTable</title>
<polygon fill="none" stroke="black" points="1333.9,-1327.51 1229.9,-1327.51 1229.9,-1291.51 1333.9,-1291.51 1333.9,-1327.51"/>
<text text-anchor="middle" x="1281.9" y="-1306.71" font-family="Courier,monospace" font-size="11.00">UpdateIdTable</text>
</g>
<!-- \\Slothsoft\\MTG\\Oracle\\Work\\UpdateIdTable&#45;&gt;\\Slothsoft\\MTG\\Oracle\\Work\\AbstractOracleWork -->
<g id="edge22" class="edge"><title>\\Slothsoft\\MTG\\Oracle\\Work\\UpdateIdTable&#45;&gt;\\Slothsoft\\MTG\\Oracle\\Work\\AbstractOracleWork</title>
<path fill="none" stroke="black" d="M1229.86,-1293.29C1224.89,-1290.27 1220.27,-1286.7 1216.4,-1282.51 1146.39,-1206.55 1226.05,-1124.8 1144.4,-1061.51 1068.05,-1002.31 951.651,-1008.37 874.804,-1021.33"/>
<polygon fill="none" stroke="black" points="873.94,-1017.93 864.7,-1023.11 875.156,-1024.82 873.94,-1017.93"/>
</g>
<!-- \\Slothsoft\\MTG\\Oracle\\Card -->
<g id="node18" class="node"><title>\\Slothsoft\\MTG\\Oracle\\Card</title>
<polygon fill="none" stroke="black" points="1308.9,-625.509 1254.9,-625.509 1254.9,-589.509 1308.9,-589.509 1308.9,-625.509"/>
<text text-anchor="middle" x="1281.9" y="-604.709" font-family="Courier,monospace" font-size="11.00">Card</text>
</g>
<!-- \\Slothsoft\\MTG\\Oracle\\Set -->
<g id="node19" class="node"><title>\\Slothsoft\\MTG\\Oracle\\Set</title>
<polygon fill="none" stroke="black" points="1308.9,-571.509 1254.9,-571.509 1254.9,-535.509 1308.9,-535.509 1308.9,-571.509"/>
<text text-anchor="middle" x="1281.9" y="-550.709" font-family="Courier,monospace" font-size="11.00">Set</text>
</g>
<!-- \\Slothsoft\\MTG\\OracleReview -->
<g id="node20" class="node"><title>\\Slothsoft\\MTG\\OracleReview</title>
<polygon fill="none" stroke="black" points="1330.9,-2183.51 1232.9,-2183.51 1232.9,-2147.51 1330.9,-2147.51 1330.9,-2183.51"/>
<text text-anchor="middle" x="1281.9" y="-2162.71" font-family="Courier,monospace" font-size="11.00">OracleReview</text>
</g>
<!-- \\Slothsoft\\MTG\\OracleDeck -->
<g id="node21" class="node"><title>\\Slothsoft\\MTG\\OracleDeck</title>
<polygon fill="none" stroke="black" points="1323.9,-2129.51 1239.9,-2129.51 1239.9,-2093.51 1323.9,-2093.51 1323.9,-2129.51"/>
<text text-anchor="middle" x="1281.9" y="-2108.71" font-family="Courier,monospace" font-size="11.00">OracleDeck</text>
</g>
<!-- \\Slothsoft\\MTG\\Deck -->
<g id="node22" class="node"><title>\\Slothsoft\\MTG\\Deck</title>
<polygon fill="none" stroke="black" points="1308.9,-2075.51 1254.9,-2075.51 1254.9,-2039.51 1308.9,-2039.51 1308.9,-2075.51"/>
<text text-anchor="middle" x="1281.9" y="-2054.71" font-family="Courier,monospace" font-size="11.00">Deck</text>
</g>
<!-- \\Slothsoft\\MTG\\OracleXMLTable -->
<g id="node23" class="node"><title>\\Slothsoft\\MTG\\OracleXMLTable</title>
<polygon fill="none" stroke="black" points="1337.4,-2237.51 1226.4,-2237.51 1226.4,-2201.51 1337.4,-2201.51 1337.4,-2237.51"/>
<text text-anchor="middle" x="1281.9" y="-2216.71" font-family="Courier,monospace" font-size="11.00">OracleXMLTable</text>
</g>
<!-- \\Slothsoft\\MTG\\OracleTable -->
<g id="node38" class="node"><title>\\Slothsoft\\MTG\\OracleTable</title>
<polygon fill="none" stroke="black" points="840.886,-2129.51 749.886,-2129.51 749.886,-2093.51 840.886,-2093.51 840.886,-2129.51"/>
<text text-anchor="start" x="761.386" y="-2114.71" font-family="Courier,monospace" font-size="11.00">«abstract»</text>
<text text-anchor="start" x="757.886" y="-2102.71" font-family="Courier,monospace" font-size="11.00">OracleTable</text>
</g>
<!-- \\Slothsoft\\MTG\\OracleXMLTable&#45;&gt;\\Slothsoft\\MTG\\OracleTable -->
<g id="edge1" class="edge"><title>\\Slothsoft\\MTG\\OracleXMLTable&#45;&gt;\\Slothsoft\\MTG\\OracleTable</title>
<path fill="none" stroke="black" d="M1226.27,-2207.33C1133.02,-2186.54 944.22,-2144.46 850.994,-2123.68"/>
<polygon fill="none" stroke="black" points="851.715,-2120.26 841.194,-2121.5 850.193,-2127.09 851.715,-2120.26"/>
</g>
<!-- \\Slothsoft\\MTG\\MKMShop -->
<g id="node24" class="node"><title>\\Slothsoft\\MTG\\MKMShop</title>
<polygon fill="none" stroke="black" points="1313.9,-1967.51 1249.9,-1967.51 1249.9,-1931.51 1313.9,-1931.51 1313.9,-1967.51"/>
<text text-anchor="middle" x="1281.9" y="-1946.71" font-family="Courier,monospace" font-size="11.00">MKMShop</text>
</g>
<!-- \\Slothsoft\\MTG\\BigInt -->
<g id="node25" class="node"><title>\\Slothsoft\\MTG\\BigInt</title>
<polygon fill="none" stroke="black" points="1310.4,-1913.51 1253.4,-1913.51 1253.4,-1877.51 1310.4,-1877.51 1310.4,-1913.51"/>
<text text-anchor="middle" x="1281.9" y="-1892.71" font-family="Courier,monospace" font-size="11.00">BigInt</text>
</g>
<!-- \\Slothsoft\\MTG\\OracleInfo -->
<g id="node26" class="node"><title>\\Slothsoft\\MTG\\OracleInfo</title>
<polygon fill="none" stroke="black" points="1323.9,-1859.51 1239.9,-1859.51 1239.9,-1823.51 1323.9,-1823.51 1323.9,-1859.51"/>
<text text-anchor="middle" x="1281.9" y="-1838.71" font-family="Courier,monospace" font-size="11.00">OracleInfo</text>
</g>
<!-- \\Slothsoft\\MTG\\OraclePlayer -->
<g id="node27" class="node"><title>\\Slothsoft\\MTG\\OraclePlayer</title>
<polygon fill="none" stroke="black" points="1330.9,-1805.51 1232.9,-1805.51 1232.9,-1769.51 1330.9,-1769.51 1330.9,-1805.51"/>
<text text-anchor="middle" x="1281.9" y="-1784.71" font-family="Courier,monospace" font-size="11.00">OraclePlayer</text>
</g>
<!-- \\Slothsoft\\MTG\\OracleCardImage -->
<g id="node28" class="node"><title>\\Slothsoft\\MTG\\OracleCardImage</title>
<polygon fill="none" stroke="black" points="1340.9,-1751.51 1222.9,-1751.51 1222.9,-1715.51 1340.9,-1715.51 1340.9,-1751.51"/>
<text text-anchor="middle" x="1281.9" y="-1730.71" font-family="Courier,monospace" font-size="11.00">OracleCardImage</text>
</g>
<!-- \\Slothsoft\\MTG\\OracleSetImage -->
<g id="node29" class="node"><title>\\Slothsoft\\MTG\\OracleSetImage</title>
<polygon fill="none" stroke="black" points="1337.4,-1697.51 1226.4,-1697.51 1226.4,-1661.51 1337.4,-1661.51 1337.4,-1697.51"/>
<text text-anchor="middle" x="1281.9" y="-1676.71" font-family="Courier,monospace" font-size="11.00">OracleSetImage</text>
</g>
<!-- \\Slothsoft\\MTG\\RSAKeyPair -->
<g id="node30" class="node"><title>\\Slothsoft\\MTG\\RSAKeyPair</title>
<polygon fill="none" stroke="black" points="1323.9,-1643.51 1239.9,-1643.51 1239.9,-1607.51 1323.9,-1607.51 1323.9,-1643.51"/>
<text text-anchor="middle" x="1281.9" y="-1622.71" font-family="Courier,monospace" font-size="11.00">RSAKeyPair</text>
</g>
<!-- \\Slothsoft\\MTG\\OracleColorImage -->
<g id="node31" class="node"><title>\\Slothsoft\\MTG\\OracleColorImage</title>
<polygon fill="none" stroke="black" points="1344.4,-1589.51 1219.4,-1589.51 1219.4,-1553.51 1344.4,-1553.51 1344.4,-1589.51"/>
<text text-anchor="middle" x="1281.9" y="-1568.71" font-family="Courier,monospace" font-size="11.00">OracleColorImage</text>
</g>
<!-- \\Slothsoft\\MTG\\OracleCardTable -->
<g id="node32" class="node"><title>\\Slothsoft\\MTG\\OracleCardTable</title>
<polygon fill="none" stroke="black" points="1340.9,-2021.51 1222.9,-2021.51 1222.9,-1985.51 1340.9,-1985.51 1340.9,-2021.51"/>
<text text-anchor="middle" x="1281.9" y="-2000.71" font-family="Courier,monospace" font-size="11.00">OracleCardTable</text>
</g>
<!-- \\Slothsoft\\MTG\\OracleCardTable&#45;&gt;\\Slothsoft\\MTG\\OracleTable -->
<g id="edge2" class="edge"><title>\\Slothsoft\\MTG\\OracleCardTable&#45;&gt;\\Slothsoft\\MTG\\OracleTable</title>
<path fill="none" stroke="black" d="M1222.46,-2016.54C1127.97,-2037.6 942.965,-2078.84 850.992,-2099.34"/>
<polygon fill="none" stroke="black" points="850.049,-2095.96 841.05,-2101.55 851.572,-2102.79 850.049,-2095.96"/>
</g>
<!-- \\Slothsoft\\MTG\\Player -->
<g id="node33" class="node"><title>\\Slothsoft\\MTG\\Player</title>
<polygon fill="none" stroke="black" points="1310.4,-1481.51 1253.4,-1481.51 1253.4,-1445.51 1310.4,-1445.51 1310.4,-1481.51"/>
<text text-anchor="middle" x="1281.9" y="-1460.71" font-family="Courier,monospace" font-size="11.00">Player</text>
</g>
<!-- \\Slothsoft\\MTG\\OracleCustomTable -->
<g id="node34" class="node"><title>\\Slothsoft\\MTG\\OracleCustomTable</title>
<polygon fill="none" stroke="black" points="1347.4,-1535.51 1216.4,-1535.51 1216.4,-1499.51 1347.4,-1499.51 1347.4,-1535.51"/>
<text text-anchor="middle" x="1281.9" y="-1514.71" font-family="Courier,monospace" font-size="11.00">OracleCustomTable</text>
</g>
<!-- \\Slothsoft\\MTG\\OracleCustomTable&#45;&gt;\\Slothsoft\\MTG\\OracleTable -->
<g id="edge3" class="edge"><title>\\Slothsoft\\MTG\\OracleCustomTable&#45;&gt;\\Slothsoft\\MTG\\OracleTable</title>
<path fill="none" stroke="black" d="M1230.11,-1535.61C1225.27,-1538.25 1220.61,-1541.21 1216.4,-1544.51 1009.66,-1706.57 854.567,-1994.97 809.656,-2084.34"/>
<polygon fill="none" stroke="black" points="806.518,-2082.79 805.189,-2093.3 812.783,-2085.91 806.518,-2082.79"/>
</g>
<!-- \\Slothsoft\\MTG\\OracleIdTable -->
<g id="node35" class="node"><title>\\Slothsoft\\MTG\\OracleIdTable</title>
<polygon fill="none" stroke="black" points="1333.9,-2291.51 1229.9,-2291.51 1229.9,-2255.51 1333.9,-2255.51 1333.9,-2291.51"/>
<text text-anchor="middle" x="1281.9" y="-2270.71" font-family="Courier,monospace" font-size="11.00">OracleIdTable</text>
</g>
<!-- \\Slothsoft\\MTG\\OracleIdTable&#45;&gt;\\Slothsoft\\MTG\\OracleTable -->
<g id="edge4" class="edge"><title>\\Slothsoft\\MTG\\OracleIdTable&#45;&gt;\\Slothsoft\\MTG\\OracleTable</title>
<path fill="none" stroke="black" d="M1229.51,-2256.33C1137.42,-2225.53 945.123,-2161.24 850.853,-2129.72"/>
<polygon fill="none" stroke="black" points="851.816,-2126.35 841.222,-2126.5 849.596,-2132.99 851.816,-2126.35"/>
</g>
<!-- \\Slothsoft\\MTG\\MKMBooster -->
<g id="node36" class="node"><title>\\Slothsoft\\MTG\\MKMBooster</title>
<polygon fill="none" stroke="black" points="1323.9,-383.509 1239.9,-383.509 1239.9,-347.509 1323.9,-347.509 1323.9,-383.509"/>
<text text-anchor="middle" x="1281.9" y="-362.709" font-family="Courier,monospace" font-size="11.00">MKMBooster</text>
</g>
<!-- \\Slothsoft\\MTG\\OracleRarityImage -->
<g id="node37" class="node"><title>\\Slothsoft\\MTG\\OracleRarityImage</title>
<polygon fill="none" stroke="black" points="1347.4,-329.509 1216.4,-329.509 1216.4,-293.509 1347.4,-293.509 1347.4,-329.509"/>
<text text-anchor="middle" x="1281.9" y="-308.709" font-family="Courier,monospace" font-size="11.00">OracleRarityImage</text>
</g>
<!-- \\Serializable -->
<g id="node42" class="node"><title>\\Serializable</title>
<ellipse fill="none" stroke="black" cx="187.183" cy="-2111.51" rx="53.8905" ry="18"/>
<text text-anchor="middle" x="187.183" y="-2107.81" font-family="Times New Roman,serif" font-size="14.00" fill="gray">\Serializable</text>
</g>
<!-- \\Slothsoft\\MTG\\OracleTable&#45;&gt;\\Serializable -->
<g id="edge5" class="edge"><title>\\Slothsoft\\MTG\\OracleTable&#45;&gt;\\Serializable</title>
<path fill="none" stroke="black" stroke-dasharray="1,5" d="M749.81,-2111.51C643.43,-2111.51 374.424,-2111.51 251.374,-2111.51"/>
<polygon fill="none" stroke="black" points="251.349,-2108.01 241.349,-2111.51 251.349,-2115.01 251.349,-2108.01"/>
</g>
<!-- \\Slothsoft\\MTG\\OracleXSLT -->
<g id="node39" class="node"><title>\\Slothsoft\\MTG\\OracleXSLT</title>
<polygon fill="none" stroke="black" points="1323.9,-275.509 1239.9,-275.509 1239.9,-239.509 1323.9,-239.509 1323.9,-275.509"/>
<text text-anchor="middle" x="1281.9" y="-254.709" font-family="Courier,monospace" font-size="11.00">OracleXSLT</text>
</g>
<!-- \\Slothsoft\\MTG\\MKMAuthority -->
<g id="node40" class="node"><title>\\Slothsoft\\MTG\\MKMAuthority</title>
<polygon fill="none" stroke="black" points="1330.9,-221.509 1232.9,-221.509 1232.9,-185.509 1330.9,-185.509 1330.9,-221.509"/>
<text text-anchor="middle" x="1281.9" y="-200.709" font-family="Courier,monospace" font-size="11.00">MKMAuthority</text>
</g>
<!-- \\Slothsoft\\MTG\\MKM -->
<g id="node41" class="node"><title>\\Slothsoft\\MTG\\MKM</title>
<polygon fill="none" stroke="black" points="1308.9,-167.509 1254.9,-167.509 1254.9,-131.509 1308.9,-131.509 1308.9,-167.509"/>
<text text-anchor="middle" x="1281.9" y="-146.709" font-family="Courier,monospace" font-size="11.00">MKM</text>
</g>
</g>
</svg>
