<?xml version="1.0" encoding="UTF-8" standalone="no"?>
<!DOCTYPE svg PUBLIC "-//W3C//DTD SVG 1.1//EN"
 "http://www.w3.org/Graphics/SVG/1.1/DTD/svg11.dtd">
<!-- Generated by graphviz version 2.38.0 (20140413.2041)
 -->
<!-- Title: G Pages: 1 -->
<svg width="696pt" height="1500pt"
 viewBox="0.00 0.00 695.87 1500.00" xmlns="http://www.w3.org/2000/svg" xmlns:xlink="http://www.w3.org/1999/xlink">
<g id="graph0" class="graph" transform="scale(1 1) rotate(0) translate(4 1496)">
<title>G</title>
<polygon fill="white" stroke="none" points="-4,4 -4,-1496 691.866,-1496 691.866,4 -4,4"/>
<g id="clust1" class="cluster"><title>cluster_Global</title>
<path fill="none" stroke="gray" d="M258.878,-98C258.878,-98 667.866,-98 667.866,-98 673.866,-98 679.866,-104 679.866,-110 679.866,-110 679.866,-1472 679.866,-1472 679.866,-1478 673.866,-1484 667.866,-1484 667.866,-1484 258.878,-1484 258.878,-1484 252.878,-1484 246.878,-1478 246.878,-1472 246.878,-1472 246.878,-110 246.878,-110 246.878,-104 252.878,-98 258.878,-98"/>
<text text-anchor="middle" x="463.372" y="-1471.2" font-family="Times New Roman,serif" font-size="11.00" fill="gray">Global</text>
</g>
<g id="clust2" class="cluster"><title>cluster_\Slothsoft</title>
<path fill="none" stroke="gray" d="M266.878,-106C266.878,-106 659.866,-106 659.866,-106 665.866,-106 671.866,-112 671.866,-118 671.866,-118 671.866,-1444 671.866,-1444 671.866,-1450 665.866,-1456 659.866,-1456 659.866,-1456 266.878,-1456 266.878,-1456 260.878,-1456 254.878,-1450 254.878,-1444 254.878,-1444 254.878,-118 254.878,-118 254.878,-112 260.878,-106 266.878,-106"/>
<text text-anchor="middle" x="463.372" y="-1443.2" font-family="Times New Roman,serif" font-size="11.00" fill="gray">Slothsoft</text>
</g>
<g id="clust3" class="cluster"><title>cluster_\Slothsoft\MTG</title>
<path fill="none" stroke="gray" d="M274.878,-114C274.878,-114 651.866,-114 651.866,-114 657.866,-114 663.866,-120 663.866,-126 663.866,-126 663.866,-1416 663.866,-1416 663.866,-1422 657.866,-1428 651.866,-1428 651.866,-1428 274.878,-1428 274.878,-1428 268.878,-1428 262.878,-1422 262.878,-1416 262.878,-1416 262.878,-126 262.878,-126 262.878,-120 268.878,-114 274.878,-114"/>
<text text-anchor="middle" x="463.372" y="-1415.2" font-family="Times New Roman,serif" font-size="11.00" fill="gray">MTG</text>
</g>
<!-- \\Slothsoft\\MTG\\BigInt -->
<g id="node1" class="node"><title>\\Slothsoft\\MTG\\BigInt</title>
<polygon fill="none" stroke="black" points="618.866,-1400 561.866,-1400 561.866,-1364 618.866,-1364 618.866,-1400"/>
<text text-anchor="middle" x="590.366" y="-1379.2" font-family="Courier,monospace" font-size="11.00">BigInt</text>
</g>
<!-- \\Slothsoft\\MTG\\Deck -->
<g id="node2" class="node"><title>\\Slothsoft\\MTG\\Deck</title>
<polygon fill="none" stroke="black" points="617.366,-1346 563.366,-1346 563.366,-1310 617.366,-1310 617.366,-1346"/>
<text text-anchor="middle" x="590.366" y="-1325.2" font-family="Courier,monospace" font-size="11.00">Deck</text>
</g>
<!-- \\Slothsoft\\MTG\\MKM -->
<g id="node3" class="node"><title>\\Slothsoft\\MTG\\MKM</title>
<polygon fill="none" stroke="black" points="617.366,-1292 563.366,-1292 563.366,-1256 617.366,-1256 617.366,-1292"/>
<text text-anchor="middle" x="590.366" y="-1271.2" font-family="Courier,monospace" font-size="11.00">MKM</text>
</g>
<!-- \\Slothsoft\\MTG\\MKMAuthority -->
<g id="node4" class="node"><title>\\Slothsoft\\MTG\\MKMAuthority</title>
<polygon fill="none" stroke="black" points="639.366,-1238 541.366,-1238 541.366,-1202 639.366,-1202 639.366,-1238"/>
<text text-anchor="middle" x="590.366" y="-1217.2" font-family="Courier,monospace" font-size="11.00">MKMAuthority</text>
</g>
<!-- \\Slothsoft\\MTG\\MKMBooster -->
<g id="node5" class="node"><title>\\Slothsoft\\MTG\\MKMBooster</title>
<polygon fill="none" stroke="black" points="632.366,-1184 548.366,-1184 548.366,-1148 632.366,-1148 632.366,-1184"/>
<text text-anchor="middle" x="590.366" y="-1163.2" font-family="Courier,monospace" font-size="11.00">MKMBooster</text>
</g>
<!-- \\Slothsoft\\MTG\\MKMShop -->
<g id="node6" class="node"><title>\\Slothsoft\\MTG\\MKMShop</title>
<polygon fill="none" stroke="black" points="622.366,-1130 558.366,-1130 558.366,-1094 622.366,-1094 622.366,-1130"/>
<text text-anchor="middle" x="590.366" y="-1109.2" font-family="Courier,monospace" font-size="11.00">MKMShop</text>
</g>
<!-- \\Slothsoft\\MTG\\Oracle -->
<g id="node7" class="node"><title>\\Slothsoft\\MTG\\Oracle</title>
<polygon fill="none" stroke="black" points="618.866,-428 561.866,-428 561.866,-392 618.866,-392 618.866,-428"/>
<text text-anchor="middle" x="590.366" y="-407.2" font-family="Courier,monospace" font-size="11.00">Oracle</text>
</g>
<!-- \\Serializable -->
<g id="node26" class="node"><title>\\Serializable</title>
<ellipse fill="none" stroke="black" cx="53.9452" cy="-722" rx="53.8905" ry="18"/>
<text text-anchor="middle" x="53.9452" y="-718.3" font-family="Times New Roman,serif" font-size="14.00" fill="gray">\Serializable</text>
</g>
<!-- \\Slothsoft\\MTG\\Oracle&#45;&gt;\\Serializable -->
<g id="edge1" class="edge"><title>\\Slothsoft\\MTG\\Oracle&#45;&gt;\\Serializable</title>
<path fill="none" stroke="black" stroke-dasharray="1,5" d="M561.653,-420.547C550.102,-425.212 536.659,-430.998 524.866,-437 354.087,-523.924 162.046,-649.869 87.2121,-700.111"/>
<polygon fill="none" stroke="black" points="85.0187,-697.368 78.6764,-705.855 88.9268,-703.176 85.0187,-697.368"/>
</g>
<!-- \\Slothsoft\\MTG\\OracleCardImage -->
<g id="node8" class="node"><title>\\Slothsoft\\MTG\\OracleCardImage</title>
<polygon fill="none" stroke="black" points="649.366,-1022 531.366,-1022 531.366,-986 649.366,-986 649.366,-1022"/>
<text text-anchor="middle" x="590.366" y="-1001.2" font-family="Courier,monospace" font-size="11.00">OracleCardImage</text>
</g>
<!-- \\Slothsoft\\MTG\\OracleCardTable -->
<g id="node9" class="node"><title>\\Slothsoft\\MTG\\OracleCardTable</title>
<polygon fill="none" stroke="black" points="649.366,-1076 531.366,-1076 531.366,-1040 649.366,-1040 649.366,-1076"/>
<text text-anchor="middle" x="590.366" y="-1055.2" font-family="Courier,monospace" font-size="11.00">OracleCardTable</text>
</g>
<!-- \\Slothsoft\\MTG\\OracleTable -->
<g id="node19" class="node"><title>\\Slothsoft\\MTG\\OracleTable</title>
<polygon fill="none" stroke="black" points="361.878,-860 270.878,-860 270.878,-824 361.878,-824 361.878,-860"/>
<text text-anchor="start" x="282.378" y="-845.2" font-family="Courier,monospace" font-size="11.00">«abstract»</text>
<text text-anchor="start" x="278.878" y="-833.2" font-family="Courier,monospace" font-size="11.00">OracleTable</text>
</g>
<!-- \\Slothsoft\\MTG\\OracleCardTable&#45;&gt;\\Slothsoft\\MTG\\OracleTable -->
<g id="edge2" class="edge"><title>\\Slothsoft\\MTG\\OracleCardTable&#45;&gt;\\Slothsoft\\MTG\\OracleTable</title>
<path fill="none" stroke="black" d="M540.889,-1039.86C535.34,-1037.16 529.882,-1034.2 524.866,-1031 449.879,-983.186 376.349,-907.48 340.315,-867.958"/>
<polygon fill="none" stroke="black" points="342.511,-865.168 333.208,-860.097 337.318,-869.862 342.511,-865.168"/>
</g>
<!-- \\Slothsoft\\MTG\\OracleColorImage -->
<g id="node10" class="node"><title>\\Slothsoft\\MTG\\OracleColorImage</title>
<polygon fill="none" stroke="black" points="652.866,-914 527.866,-914 527.866,-878 652.866,-878 652.866,-914"/>
<text text-anchor="middle" x="590.366" y="-893.2" font-family="Courier,monospace" font-size="11.00">OracleColorImage</text>
</g>
<!-- \\Slothsoft\\MTG\\OracleCustomTable -->
<g id="node11" class="node"><title>\\Slothsoft\\MTG\\OracleCustomTable</title>
<polygon fill="none" stroke="black" points="655.866,-968 524.866,-968 524.866,-932 655.866,-932 655.866,-968"/>
<text text-anchor="middle" x="590.366" y="-947.2" font-family="Courier,monospace" font-size="11.00">OracleCustomTable</text>
</g>
<!-- \\Slothsoft\\MTG\\OracleCustomTable&#45;&gt;\\Slothsoft\\MTG\\OracleTable -->
<g id="edge3" class="edge"><title>\\Slothsoft\\MTG\\OracleCustomTable&#45;&gt;\\Slothsoft\\MTG\\OracleTable</title>
<path fill="none" stroke="black" d="M543.842,-931.923C496.39,-913.081 422.044,-883.56 371.59,-863.526"/>
<polygon fill="none" stroke="black" points="372.732,-860.214 362.146,-859.776 370.149,-866.72 372.732,-860.214"/>
</g>
<!-- \\Slothsoft\\MTG\\OracleDeck -->
<g id="node12" class="node"><title>\\Slothsoft\\MTG\\OracleDeck</title>
<polygon fill="none" stroke="black" points="632.366,-806 548.366,-806 548.366,-770 632.366,-770 632.366,-806"/>
<text text-anchor="middle" x="590.366" y="-785.2" font-family="Courier,monospace" font-size="11.00">OracleDeck</text>
</g>
<!-- \\Slothsoft\\MTG\\OracleIdTable -->
<g id="node13" class="node"><title>\\Slothsoft\\MTG\\OracleIdTable</title>
<polygon fill="none" stroke="black" points="642.366,-860 538.366,-860 538.366,-824 642.366,-824 642.366,-860"/>
<text text-anchor="middle" x="590.366" y="-839.2" font-family="Courier,monospace" font-size="11.00">OracleIdTable</text>
</g>
<!-- \\Slothsoft\\MTG\\OracleIdTable&#45;&gt;\\Slothsoft\\MTG\\OracleTable -->
<g id="edge4" class="edge"><title>\\Slothsoft\\MTG\\OracleIdTable&#45;&gt;\\Slothsoft\\MTG\\OracleTable</title>
<path fill="none" stroke="black" d="M538.207,-842C490.897,-842 420.78,-842 372.305,-842"/>
<polygon fill="none" stroke="black" points="372.001,-838.5 362.001,-842 372.001,-845.5 372.001,-838.5"/>
</g>
<!-- \\Slothsoft\\MTG\\OracleInfo -->
<g id="node14" class="node"><title>\\Slothsoft\\MTG\\OracleInfo</title>
<polygon fill="none" stroke="black" points="632.366,-698 548.366,-698 548.366,-662 632.366,-662 632.366,-698"/>
<text text-anchor="middle" x="590.366" y="-677.2" font-family="Courier,monospace" font-size="11.00">OracleInfo</text>
</g>
<!-- \\Slothsoft\\MTG\\OraclePlayer -->
<g id="node15" class="node"><title>\\Slothsoft\\MTG\\OraclePlayer</title>
<polygon fill="none" stroke="black" points="639.366,-644 541.366,-644 541.366,-608 639.366,-608 639.366,-644"/>
<text text-anchor="middle" x="590.366" y="-623.2" font-family="Courier,monospace" font-size="11.00">OraclePlayer</text>
</g>
<!-- \\Slothsoft\\MTG\\OracleRarityImage -->
<g id="node16" class="node"><title>\\Slothsoft\\MTG\\OracleRarityImage</title>
<polygon fill="none" stroke="black" points="655.866,-590 524.866,-590 524.866,-554 655.866,-554 655.866,-590"/>
<text text-anchor="middle" x="590.366" y="-569.2" font-family="Courier,monospace" font-size="11.00">OracleRarityImage</text>
</g>
<!-- \\Slothsoft\\MTG\\OracleReview -->
<g id="node17" class="node"><title>\\Slothsoft\\MTG\\OracleReview</title>
<polygon fill="none" stroke="black" points="639.366,-536 541.366,-536 541.366,-500 639.366,-500 639.366,-536"/>
<text text-anchor="middle" x="590.366" y="-515.2" font-family="Courier,monospace" font-size="11.00">OracleReview</text>
</g>
<!-- \\Slothsoft\\MTG\\OracleSetImage -->
<g id="node18" class="node"><title>\\Slothsoft\\MTG\\OracleSetImage</title>
<polygon fill="none" stroke="black" points="645.866,-482 534.866,-482 534.866,-446 645.866,-446 645.866,-482"/>
<text text-anchor="middle" x="590.366" y="-461.2" font-family="Courier,monospace" font-size="11.00">OracleSetImage</text>
</g>
<!-- \\Slothsoft\\MTG\\OracleTable&#45;&gt;\\Serializable -->
<g id="edge5" class="edge"><title>\\Slothsoft\\MTG\\OracleTable&#45;&gt;\\Serializable</title>
<path fill="none" stroke="black" stroke-dasharray="1,5" d="M276.107,-823.905C227.381,-801.454 144.723,-763.367 95.438,-740.658"/>
<polygon fill="none" stroke="black" points="96.8898,-737.473 86.3428,-736.467 93.9604,-743.831 96.8898,-737.473"/>
</g>
<!-- \\Slothsoft\\MTG\\OracleWork -->
<g id="node20" class="node"><title>\\Slothsoft\\MTG\\OracleWork</title>
<polygon fill="none" stroke="black" points="632.366,-374 548.366,-374 548.366,-338 632.366,-338 632.366,-374"/>
<text text-anchor="middle" x="590.366" y="-353.2" font-family="Courier,monospace" font-size="11.00">OracleWork</text>
</g>
<!-- \\Slothsoft\\Core\\Lambda\\Stackable -->
<g id="node27" class="node"><title>\\Slothsoft\\Core\\Lambda\\Stackable</title>
<ellipse fill="none" stroke="black" cx="316.378" cy="-72" rx="136.476" ry="18"/>
<text text-anchor="middle" x="316.378" y="-68.3" font-family="Times New Roman,serif" font-size="14.00" fill="gray">\Slothsoft\Core\Lambda\Stackable</text>
</g>
<!-- \\Slothsoft\\MTG\\OracleWork&#45;&gt;\\Slothsoft\\Core\\Lambda\\Stackable -->
<g id="edge6" class="edge"><title>\\Slothsoft\\MTG\\OracleWork&#45;&gt;\\Slothsoft\\Core\\Lambda\\Stackable</title>
<path fill="none" stroke="black" d="M548.167,-344.927C539.573,-341.043 531.21,-335.865 524.866,-329 455.327,-253.753 526.898,-180.831 452.866,-110 443.442,-100.983 432.055,-94.0744 419.935,-88.7867"/>
<polygon fill="none" stroke="black" points="421.129,-85.4951 410.544,-85.0512 418.542,-91.9995 421.129,-85.4951"/>
</g>
<!-- \\Slothsoft\\MTG\\OracleWorkStream -->
<g id="node21" class="node"><title>\\Slothsoft\\MTG\\OracleWorkStream</title>
<polygon fill="none" stroke="black" points="652.866,-320 527.866,-320 527.866,-284 652.866,-284 652.866,-320"/>
<text text-anchor="middle" x="590.366" y="-299.2" font-family="Courier,monospace" font-size="11.00">OracleWorkStream</text>
</g>
<!-- \\Slothsoft\\Core\\Lambda\\Stream -->
<g id="node28" class="node"><title>\\Slothsoft\\Core\\Lambda\\Stream</title>
<ellipse fill="none" stroke="black" cx="316.378" cy="-18" rx="126.978" ry="18"/>
<text text-anchor="middle" x="316.378" y="-14.3" font-family="Times New Roman,serif" font-size="14.00" fill="gray">\Slothsoft\Core\Lambda\Stream</text>
</g>
<!-- \\Slothsoft\\MTG\\OracleWorkStream&#45;&gt;\\Slothsoft\\Core\\Lambda\\Stream -->
<g id="edge7" class="edge"><title>\\Slothsoft\\MTG\\OracleWorkStream&#45;&gt;\\Slothsoft\\Core\\Lambda\\Stream</title>
<path fill="none" stroke="black" d="M535.16,-283.819C531.389,-281.245 527.891,-278.32 524.866,-275 452.73,-195.818 532.537,-116.595 452.866,-45 446.971,-39.7021 440.34,-35.3221 433.261,-31.7112"/>
<polygon fill="none" stroke="black" points="434.629,-28.4886 424.077,-27.5377 431.733,-34.8614 434.629,-28.4886"/>
</g>
<!-- \\Slothsoft\\MTG\\OracleXMLTable -->
<g id="node22" class="node"><title>\\Slothsoft\\MTG\\OracleXMLTable</title>
<polygon fill="none" stroke="black" points="645.866,-752 534.866,-752 534.866,-716 645.866,-716 645.866,-752"/>
<text text-anchor="middle" x="590.366" y="-731.2" font-family="Courier,monospace" font-size="11.00">OracleXMLTable</text>
</g>
<!-- \\Slothsoft\\MTG\\OracleXMLTable&#45;&gt;\\Slothsoft\\MTG\\OracleTable -->
<g id="edge8" class="edge"><title>\\Slothsoft\\MTG\\OracleXMLTable&#45;&gt;\\Slothsoft\\MTG\\OracleTable</title>
<path fill="none" stroke="black" d="M543.842,-752.077C496.39,-770.919 422.044,-800.44 371.59,-820.474"/>
<polygon fill="none" stroke="black" points="370.149,-817.28 362.146,-824.224 372.732,-823.786 370.149,-817.28"/>
</g>
<!-- \\Slothsoft\\MTG\\OracleXSLT -->
<g id="node23" class="node"><title>\\Slothsoft\\MTG\\OracleXSLT</title>
<polygon fill="none" stroke="black" points="632.366,-266 548.366,-266 548.366,-230 632.366,-230 632.366,-266"/>
<text text-anchor="middle" x="590.366" y="-245.2" font-family="Courier,monospace" font-size="11.00">OracleXSLT</text>
</g>
<!-- \\Slothsoft\\MTG\\Player -->
<g id="node24" class="node"><title>\\Slothsoft\\MTG\\Player</title>
<polygon fill="none" stroke="black" points="618.866,-212 561.866,-212 561.866,-176 618.866,-176 618.866,-212"/>
<text text-anchor="middle" x="590.366" y="-191.2" font-family="Courier,monospace" font-size="11.00">Player</text>
</g>
<!-- \\Slothsoft\\MTG\\RSAKeyPair -->
<g id="node25" class="node"><title>\\Slothsoft\\MTG\\RSAKeyPair</title>
<polygon fill="none" stroke="black" points="632.366,-158 548.366,-158 548.366,-122 632.366,-122 632.366,-158"/>
<text text-anchor="middle" x="590.366" y="-137.2" font-family="Courier,monospace" font-size="11.00">RSAKeyPair</text>
</g>
</g>
</svg>
