<?xml version="1.0" encoding="UTF-8" standalone="no"?>
<!DOCTYPE svg PUBLIC "-//W3C//DTD SVG 1.1//EN"
 "http://www.w3.org/Graphics/SVG/1.1/DTD/svg11.dtd">
<!-- Generated by graphviz version 2.38.0 (20140413.2041)
 -->
<!-- Title: G Pages: 1 -->
<svg width="696pt" height="1538pt"
 viewBox="0.00 0.00 695.87 1538.00" xmlns="http://www.w3.org/2000/svg" xmlns:xlink="http://www.w3.org/1999/xlink">
<g id="graph0" class="graph" transform="scale(1 1) rotate(0) translate(4 1534)">
<title>G</title>
<polygon fill="white" stroke="none" points="-4,4 -4,-1534 691.866,-1534 691.866,4 -4,4"/>
<g id="clust1" class="cluster"><title>cluster_Global</title>
<path fill="none" stroke="gray" d="M258.878,-136C258.878,-136 667.866,-136 667.866,-136 673.866,-136 679.866,-142 679.866,-148 679.866,-148 679.866,-1510 679.866,-1510 679.866,-1516 673.866,-1522 667.866,-1522 667.866,-1522 258.878,-1522 258.878,-1522 252.878,-1522 246.878,-1516 246.878,-1510 246.878,-1510 246.878,-148 246.878,-148 246.878,-142 252.878,-136 258.878,-136"/>
<text text-anchor="middle" x="463.372" y="-1509.2" font-family="Times New Roman,serif" font-size="11.00" fill="gray">Global</text>
</g>
<g id="clust2" class="cluster"><title>cluster_\Slothsoft</title>
<path fill="none" stroke="gray" d="M266.878,-144C266.878,-144 659.866,-144 659.866,-144 665.866,-144 671.866,-150 671.866,-156 671.866,-156 671.866,-1482 671.866,-1482 671.866,-1488 665.866,-1494 659.866,-1494 659.866,-1494 266.878,-1494 266.878,-1494 260.878,-1494 254.878,-1488 254.878,-1482 254.878,-1482 254.878,-156 254.878,-156 254.878,-150 260.878,-144 266.878,-144"/>
<text text-anchor="middle" x="463.372" y="-1481.2" font-family="Times New Roman,serif" font-size="11.00" fill="gray">Slothsoft</text>
</g>
<g id="clust3" class="cluster"><title>cluster_\Slothsoft\MTG</title>
<path fill="none" stroke="gray" d="M274.878,-152C274.878,-152 651.866,-152 651.866,-152 657.866,-152 663.866,-158 663.866,-164 663.866,-164 663.866,-1454 663.866,-1454 663.866,-1460 657.866,-1466 651.866,-1466 651.866,-1466 274.878,-1466 274.878,-1466 268.878,-1466 262.878,-1460 262.878,-1454 262.878,-1454 262.878,-164 262.878,-164 262.878,-158 268.878,-152 274.878,-152"/>
<text text-anchor="middle" x="463.372" y="-1453.2" font-family="Times New Roman,serif" font-size="11.00" fill="gray">MTG</text>
</g>
<!-- \\Slothsoft\\MTG\\OracleReview -->
<g id="node1" class="node"><title>\\Slothsoft\\MTG\\OracleReview</title>
<polygon fill="none" stroke="black" points="639.366,-1438 541.366,-1438 541.366,-1402 639.366,-1402 639.366,-1438"/>
<text text-anchor="middle" x="590.366" y="-1417.2" font-family="Courier,monospace" font-size="11.00">OracleReview</text>
</g>
<!-- \\Slothsoft\\MTG\\OracleWork -->
<g id="node2" class="node"><title>\\Slothsoft\\MTG\\OracleWork</title>
<polygon fill="none" stroke="black" points="632.366,-574 548.366,-574 548.366,-538 632.366,-538 632.366,-574"/>
<text text-anchor="middle" x="590.366" y="-553.2" font-family="Courier,monospace" font-size="11.00">OracleWork</text>
</g>
<!-- \\Slothsoft\\Core\\Lambda\\Stackable -->
<g id="node26" class="node"><title>\\Slothsoft\\Core\\Lambda\\Stackable</title>
<ellipse fill="none" stroke="black" cx="316.378" cy="-110" rx="136.476" ry="18"/>
<text text-anchor="middle" x="316.378" y="-106.3" font-family="Times New Roman,serif" font-size="14.00" fill="gray">\Slothsoft\Core\Lambda\Stackable</text>
</g>
<!-- \\Slothsoft\\MTG\\OracleWork&#45;&gt;\\Slothsoft\\Core\\Lambda\\Stackable -->
<g id="edge1" class="edge"><title>\\Slothsoft\\MTG\\OracleWork&#45;&gt;\\Slothsoft\\Core\\Lambda\\Stackable</title>
<path fill="none" stroke="black" d="M548.156,-545.816C539.353,-541.878 530.901,-536.454 524.866,-529 416.43,-395.062 569.329,-275.021 452.866,-148 444.611,-138.997 434.412,-132.061 423.344,-126.728"/>
<polygon fill="none" stroke="black" points="424.432,-123.385 413.865,-122.615 421.646,-129.807 424.432,-123.385"/>
</g>
<!-- \\Slothsoft\\MTG\\OracleDeck -->
<g id="node3" class="node"><title>\\Slothsoft\\MTG\\OracleDeck</title>
<polygon fill="none" stroke="black" points="632.366,-1330 548.366,-1330 548.366,-1294 632.366,-1294 632.366,-1330"/>
<text text-anchor="middle" x="590.366" y="-1309.2" font-family="Courier,monospace" font-size="11.00">OracleDeck</text>
</g>
<!-- \\Slothsoft\\MTG\\Deck -->
<g id="node4" class="node"><title>\\Slothsoft\\MTG\\Deck</title>
<polygon fill="none" stroke="black" points="617.366,-1276 563.366,-1276 563.366,-1240 617.366,-1240 617.366,-1276"/>
<text text-anchor="middle" x="590.366" y="-1255.2" font-family="Courier,monospace" font-size="11.00">Deck</text>
</g>
<!-- \\Slothsoft\\MTG\\OracleXMLTable -->
<g id="node5" class="node"><title>\\Slothsoft\\MTG\\OracleXMLTable</title>
<polygon fill="none" stroke="black" points="645.866,-1384 534.866,-1384 534.866,-1348 645.866,-1348 645.866,-1384"/>
<text text-anchor="middle" x="590.366" y="-1363.2" font-family="Courier,monospace" font-size="11.00">OracleXMLTable</text>
</g>
<!-- \\Slothsoft\\MTG\\OracleTable -->
<g id="node21" class="node"><title>\\Slothsoft\\MTG\\OracleTable</title>
<polygon fill="none" stroke="black" points="361.878,-1060 270.878,-1060 270.878,-1024 361.878,-1024 361.878,-1060"/>
<text text-anchor="start" x="282.378" y="-1045.2" font-family="Courier,monospace" font-size="11.00">«abstract»</text>
<text text-anchor="start" x="278.878" y="-1033.2" font-family="Courier,monospace" font-size="11.00">OracleTable</text>
</g>
<!-- \\Slothsoft\\MTG\\OracleXMLTable&#45;&gt;\\Slothsoft\\MTG\\OracleTable -->
<g id="edge2" class="edge"><title>\\Slothsoft\\MTG\\OracleXMLTable&#45;&gt;\\Slothsoft\\MTG\\OracleTable</title>
<path fill="none" stroke="black" d="M538.153,-1347.84C533.447,-1345.22 528.929,-1342.28 524.866,-1339 428.138,-1260.98 357.129,-1126.49 329.754,-1069.16"/>
<polygon fill="none" stroke="black" points="332.872,-1067.57 325.444,-1060.01 326.539,-1070.55 332.872,-1067.57"/>
</g>
<!-- \\Slothsoft\\MTG\\MKMShop -->
<g id="node6" class="node"><title>\\Slothsoft\\MTG\\MKMShop</title>
<polygon fill="none" stroke="black" points="622.366,-1168 558.366,-1168 558.366,-1132 622.366,-1132 622.366,-1168"/>
<text text-anchor="middle" x="590.366" y="-1147.2" font-family="Courier,monospace" font-size="11.00">MKMShop</text>
</g>
<!-- \\Slothsoft\\MTG\\BigInt -->
<g id="node7" class="node"><title>\\Slothsoft\\MTG\\BigInt</title>
<polygon fill="none" stroke="black" points="618.866,-1114 561.866,-1114 561.866,-1078 618.866,-1078 618.866,-1114"/>
<text text-anchor="middle" x="590.366" y="-1093.2" font-family="Courier,monospace" font-size="11.00">BigInt</text>
</g>
<!-- \\Slothsoft\\MTG\\Oracle -->
<g id="node8" class="node"><title>\\Slothsoft\\MTG\\Oracle</title>
<polygon fill="none" stroke="black" points="618.866,-520 561.866,-520 561.866,-484 618.866,-484 618.866,-520"/>
<text text-anchor="middle" x="590.366" y="-499.2" font-family="Courier,monospace" font-size="11.00">Oracle</text>
</g>
<!-- \\Serializable -->
<g id="node27" class="node"><title>\\Serializable</title>
<ellipse fill="none" stroke="black" cx="53.9452" cy="-553" rx="53.8905" ry="18"/>
<text text-anchor="middle" x="53.9452" y="-549.3" font-family="Times New Roman,serif" font-size="14.00" fill="gray">\Serializable</text>
</g>
<!-- \\Slothsoft\\MTG\\Oracle&#45;&gt;\\Serializable -->
<g id="edge3" class="edge"><title>\\Slothsoft\\MTG\\Oracle&#45;&gt;\\Serializable</title>
<path fill="none" stroke="black" stroke-dasharray="1,5" d="M561.833,-496.842C548.747,-492.987 534.003,-486.345 524.866,-475 413.759,-337.041 588.965,-196.378 452.866,-83 406.259,-44.1733 227.98,-46.0244 179.89,-83 107.941,-138.321 68.7188,-432.196 57.9982,-524.936"/>
<polygon fill="none" stroke="black" points="54.5086,-524.648 56.8586,-534.979 61.4639,-525.437 54.5086,-524.648"/>
</g>
<!-- \\Slothsoft\\MTG\\OracleInfo -->
<g id="node9" class="node"><title>\\Slothsoft\\MTG\\OracleInfo</title>
<polygon fill="none" stroke="black" points="632.366,-1006 548.366,-1006 548.366,-970 632.366,-970 632.366,-1006"/>
<text text-anchor="middle" x="590.366" y="-985.2" font-family="Courier,monospace" font-size="11.00">OracleInfo</text>
</g>
<!-- \\Slothsoft\\MTG\\OraclePlayer -->
<g id="node10" class="node"><title>\\Slothsoft\\MTG\\OraclePlayer</title>
<polygon fill="none" stroke="black" points="639.366,-952 541.366,-952 541.366,-916 639.366,-916 639.366,-952"/>
<text text-anchor="middle" x="590.366" y="-931.2" font-family="Courier,monospace" font-size="11.00">OraclePlayer</text>
</g>
<!-- \\Slothsoft\\MTG\\OracleCardImage -->
<g id="node11" class="node"><title>\\Slothsoft\\MTG\\OracleCardImage</title>
<polygon fill="none" stroke="black" points="649.366,-898 531.366,-898 531.366,-862 649.366,-862 649.366,-898"/>
<text text-anchor="middle" x="590.366" y="-877.2" font-family="Courier,monospace" font-size="11.00">OracleCardImage</text>
</g>
<!-- \\Slothsoft\\MTG\\OracleSetImage -->
<g id="node12" class="node"><title>\\Slothsoft\\MTG\\OracleSetImage</title>
<polygon fill="none" stroke="black" points="645.866,-844 534.866,-844 534.866,-808 645.866,-808 645.866,-844"/>
<text text-anchor="middle" x="590.366" y="-823.2" font-family="Courier,monospace" font-size="11.00">OracleSetImage</text>
</g>
<!-- \\Slothsoft\\MTG\\RSAKeyPair -->
<g id="node13" class="node"><title>\\Slothsoft\\MTG\\RSAKeyPair</title>
<polygon fill="none" stroke="black" points="632.366,-790 548.366,-790 548.366,-754 632.366,-754 632.366,-790"/>
<text text-anchor="middle" x="590.366" y="-769.2" font-family="Courier,monospace" font-size="11.00">RSAKeyPair</text>
</g>
<!-- \\Slothsoft\\MTG\\OracleColorImage -->
<g id="node14" class="node"><title>\\Slothsoft\\MTG\\OracleColorImage</title>
<polygon fill="none" stroke="black" points="652.866,-736 527.866,-736 527.866,-700 652.866,-700 652.866,-736"/>
<text text-anchor="middle" x="590.366" y="-715.2" font-family="Courier,monospace" font-size="11.00">OracleColorImage</text>
</g>
<!-- \\Slothsoft\\MTG\\OracleCardTable -->
<g id="node15" class="node"><title>\\Slothsoft\\MTG\\OracleCardTable</title>
<polygon fill="none" stroke="black" points="649.366,-1222 531.366,-1222 531.366,-1186 649.366,-1186 649.366,-1222"/>
<text text-anchor="middle" x="590.366" y="-1201.2" font-family="Courier,monospace" font-size="11.00">OracleCardTable</text>
</g>
<!-- \\Slothsoft\\MTG\\OracleCardTable&#45;&gt;\\Slothsoft\\MTG\\OracleTable -->
<g id="edge4" class="edge"><title>\\Slothsoft\\MTG\\OracleCardTable&#45;&gt;\\Slothsoft\\MTG\\OracleTable</title>
<path fill="none" stroke="black" d="M543.433,-1185.98C537.111,-1183.15 530.768,-1180.12 524.866,-1177 460.456,-1142.92 390.345,-1094.76 350.342,-1066.13"/>
<polygon fill="none" stroke="black" points="352.198,-1063.15 342.036,-1060.15 348.11,-1068.83 352.198,-1063.15"/>
</g>
<!-- \\Slothsoft\\MTG\\Player -->
<g id="node16" class="node"><title>\\Slothsoft\\MTG\\Player</title>
<polygon fill="none" stroke="black" points="618.866,-628 561.866,-628 561.866,-592 618.866,-592 618.866,-628"/>
<text text-anchor="middle" x="590.366" y="-607.2" font-family="Courier,monospace" font-size="11.00">Player</text>
</g>
<!-- \\Slothsoft\\MTG\\OracleCustomTable -->
<g id="node17" class="node"><title>\\Slothsoft\\MTG\\OracleCustomTable</title>
<polygon fill="none" stroke="black" points="655.866,-1060 524.866,-1060 524.866,-1024 655.866,-1024 655.866,-1060"/>
<text text-anchor="middle" x="590.366" y="-1039.2" font-family="Courier,monospace" font-size="11.00">OracleCustomTable</text>
</g>
<!-- \\Slothsoft\\MTG\\OracleCustomTable&#45;&gt;\\Slothsoft\\MTG\\OracleTable -->
<g id="edge5" class="edge"><title>\\Slothsoft\\MTG\\OracleCustomTable&#45;&gt;\\Slothsoft\\MTG\\OracleTable</title>
<path fill="none" stroke="black" d="M524.564,-1042C478.161,-1042 416.357,-1042 372.358,-1042"/>
<polygon fill="none" stroke="black" points="372.136,-1038.5 362.136,-1042 372.136,-1045.5 372.136,-1038.5"/>
</g>
<!-- \\Slothsoft\\MTG\\OracleIdTable -->
<g id="node18" class="node"><title>\\Slothsoft\\MTG\\OracleIdTable</title>
<polygon fill="none" stroke="black" points="642.366,-682 538.366,-682 538.366,-646 642.366,-646 642.366,-682"/>
<text text-anchor="middle" x="590.366" y="-661.2" font-family="Courier,monospace" font-size="11.00">OracleIdTable</text>
</g>
<!-- \\Slothsoft\\MTG\\OracleIdTable&#45;&gt;\\Slothsoft\\MTG\\OracleTable -->
<g id="edge6" class="edge"><title>\\Slothsoft\\MTG\\OracleIdTable&#45;&gt;\\Slothsoft\\MTG\\OracleTable</title>
<path fill="none" stroke="black" d="M538.213,-681.663C533.442,-684.391 528.894,-687.491 524.866,-691 417.207,-784.794 350.389,-948.693 326.89,-1013.99"/>
<polygon fill="none" stroke="black" points="323.526,-1013 323.491,-1023.6 330.126,-1015.34 323.526,-1013"/>
</g>
<!-- \\Slothsoft\\MTG\\MKMBooster -->
<g id="node19" class="node"><title>\\Slothsoft\\MTG\\MKMBooster</title>
<polygon fill="none" stroke="black" points="632.366,-466 548.366,-466 548.366,-430 632.366,-430 632.366,-466"/>
<text text-anchor="middle" x="590.366" y="-445.2" font-family="Courier,monospace" font-size="11.00">MKMBooster</text>
</g>
<!-- \\Slothsoft\\MTG\\OracleRarityImage -->
<g id="node20" class="node"><title>\\Slothsoft\\MTG\\OracleRarityImage</title>
<polygon fill="none" stroke="black" points="655.866,-412 524.866,-412 524.866,-376 655.866,-376 655.866,-412"/>
<text text-anchor="middle" x="590.366" y="-391.2" font-family="Courier,monospace" font-size="11.00">OracleRarityImage</text>
</g>
<!-- \\Slothsoft\\MTG\\OracleTable&#45;&gt;\\Serializable -->
<g id="edge7" class="edge"><title>\\Slothsoft\\MTG\\OracleTable&#45;&gt;\\Serializable</title>
<path fill="none" stroke="black" stroke-dasharray="1,5" d="M305.644,-1023.72C265.952,-949.195 116.211,-668.035 69.1745,-579.717"/>
<polygon fill="none" stroke="black" points="72.2422,-578.032 64.4522,-570.851 66.0638,-581.322 72.2422,-578.032"/>
</g>
<!-- \\Slothsoft\\MTG\\OracleXSLT -->
<g id="node22" class="node"><title>\\Slothsoft\\MTG\\OracleXSLT</title>
<polygon fill="none" stroke="black" points="632.366,-358 548.366,-358 548.366,-322 632.366,-322 632.366,-358"/>
<text text-anchor="middle" x="590.366" y="-337.2" font-family="Courier,monospace" font-size="11.00">OracleXSLT</text>
</g>
<!-- \\Slothsoft\\MTG\\OracleWorkStream -->
<g id="node23" class="node"><title>\\Slothsoft\\MTG\\OracleWorkStream</title>
<polygon fill="none" stroke="black" points="652.866,-304 527.866,-304 527.866,-268 652.866,-268 652.866,-304"/>
<text text-anchor="middle" x="590.366" y="-283.2" font-family="Courier,monospace" font-size="11.00">OracleWorkStream</text>
</g>
<!-- \\Slothsoft\\Core\\Lambda\\Stream -->
<g id="node28" class="node"><title>\\Slothsoft\\Core\\Lambda\\Stream</title>
<ellipse fill="none" stroke="black" cx="316.378" cy="-18" rx="126.978" ry="18"/>
<text text-anchor="middle" x="316.378" y="-14.3" font-family="Times New Roman,serif" font-size="14.00" fill="gray">\Slothsoft\Core\Lambda\Stream</text>
</g>
<!-- \\Slothsoft\\MTG\\OracleWorkStream&#45;&gt;\\Slothsoft\\Core\\Lambda\\Stream -->
<g id="edge8" class="edge"><title>\\Slothsoft\\MTG\\OracleWorkStream&#45;&gt;\\Slothsoft\\Core\\Lambda\\Stream</title>
<path fill="none" stroke="black" d="M535.571,-267.93C531.66,-265.327 528.021,-262.366 524.866,-259 457.678,-187.319 525.717,-115.918 452.866,-50 445.057,-42.9339 435.981,-37.3461 426.295,-32.9382"/>
<polygon fill="none" stroke="black" points="427.424,-29.6183 416.844,-29.0638 424.769,-36.0953 427.424,-29.6183"/>
</g>
<!-- \\Slothsoft\\MTG\\MKMAuthority -->
<g id="node24" class="node"><title>\\Slothsoft\\MTG\\MKMAuthority</title>
<polygon fill="none" stroke="black" points="639.366,-250 541.366,-250 541.366,-214 639.366,-214 639.366,-250"/>
<text text-anchor="middle" x="590.366" y="-229.2" font-family="Courier,monospace" font-size="11.00">MKMAuthority</text>
</g>
<!-- \\Slothsoft\\MTG\\MKM -->
<g id="node25" class="node"><title>\\Slothsoft\\MTG\\MKM</title>
<polygon fill="none" stroke="black" points="617.366,-196 563.366,-196 563.366,-160 617.366,-160 617.366,-196"/>
<text text-anchor="middle" x="590.366" y="-175.2" font-family="Courier,monospace" font-size="11.00">MKM</text>
</g>
</g>
</svg>
